<svg width="32" height="32" viewBox="0 0 32 32" fill="none" xmlns="http://www.w3.org/2000/svg">
<g clip-path="url(#clip0_2_4)">
<path d="M0 13.8496C0 2.44446 2.44446 0 13.8496 0H18.1504C29.5555 0 32 2.44446 32 13.8496V18.1504C32 29.5555 29.5555 32 18.1504 32H13.8496C2.44446 32 0 29.5555 0 18.1504V13.8496Z" fill="#F5F5F5"/>
<path d="M5 9.328C5 5.76389 5.76389 5 9.328 5H10.672C14.2361 5 15 5.76389 15 9.328V10.672C15 14.2361 14.2361 15 10.672 15H9.328C5.76389 15 5 14.2361 5 10.672V9.328Z" fill="#16161D"/>
<path d="M8.55259 13L8.28859 12.344L10.0006 10.416C10.0913 10.32 10.1846 10.2107 10.2806 10.088C10.3819 9.96 10.4779 9.82933 10.5686 9.696C10.6593 9.56267 10.7313 9.432 10.7846 9.304C10.8433 9.17067 10.8726 9.04533 10.8726 8.928C10.8726 8.75733 10.8379 8.61333 10.7686 8.496C10.7046 8.37333 10.6086 8.28 10.4806 8.216C10.3579 8.152 10.2086 8.12 10.0326 8.12C9.87793 8.12 9.72593 8.16533 9.57659 8.256C9.42726 8.34667 9.29126 8.47467 9.16859 8.64C9.04593 8.80533 8.94993 8.99733 8.88059 9.216L8.21659 8.8C8.30726 8.49067 8.44326 8.22667 8.62459 8.008C8.81126 7.784 9.03259 7.61333 9.28859 7.496C9.54993 7.37867 9.83259 7.32 10.1366 7.32C10.4513 7.32 10.7313 7.38667 10.9766 7.52C11.2219 7.648 11.4139 7.82933 11.5526 8.064C11.6913 8.29333 11.7606 8.56 11.7606 8.864C11.7606 8.98667 11.7473 9.112 11.7206 9.24C11.6939 9.368 11.6513 9.50133 11.5926 9.64C11.5339 9.77333 11.4593 9.91467 11.3686 10.064C11.2779 10.208 11.1686 10.36 11.0406 10.52C10.9179 10.68 10.7766 10.848 10.6166 11.024L9.34459 12.408L9.18459 12.168H11.9366V13H8.55259Z" fill="#F5F5F5"/>
<path d="M17 9.328C17 5.76389 17.7639 5 21.328 5H22.672C26.2361 5 27 5.76389 27 9.328V10.672C27 14.2361 26.2361 15 22.672 15H21.328C17.7639 15 17 14.2361 17 10.672V9.328Z" fill="#16161D"/>
<path d="M21.8908 13.08C21.4961 13.08 21.1521 12.9893 20.8588 12.808C20.5708 12.6267 20.2988 12.3227 20.0428 11.896L20.7148 11.472C20.8481 11.6693 20.9788 11.832 21.1068 11.96C21.2401 12.0827 21.3761 12.1733 21.5148 12.232C21.6535 12.2907 21.8001 12.32 21.9548 12.32C22.1415 12.32 22.3148 12.2747 22.4748 12.184C22.6348 12.088 22.7628 11.9573 22.8588 11.792C22.9548 11.6267 23.0028 11.44 23.0028 11.232C23.0028 11.024 22.9655 10.848 22.8908 10.704C22.8161 10.5547 22.7068 10.4427 22.5628 10.368C22.4188 10.288 22.2481 10.248 22.0508 10.248C21.9601 10.248 21.8641 10.2587 21.7628 10.28C21.6668 10.296 21.5628 10.3227 21.4508 10.36C21.3388 10.392 21.2161 10.4347 21.0828 10.488L20.8428 9.856L22.5708 7.952L22.7388 8.2H20.3548V7.4H23.5628L23.7228 7.72L21.8908 9.752L21.6908 9.544C21.7335 9.52267 21.8028 9.504 21.8988 9.488C22.0001 9.46667 22.0828 9.456 22.1468 9.456C22.3815 9.456 22.6001 9.50133 22.8028 9.592C23.0108 9.67733 23.1895 9.8 23.3388 9.96C23.4935 10.1147 23.6135 10.2987 23.6988 10.512C23.7895 10.72 23.8348 10.944 23.8348 11.184C23.8348 11.5467 23.7468 11.872 23.5708 12.16C23.4001 12.4427 23.1681 12.6667 22.8748 12.832C22.5815 12.9973 22.2535 13.08 21.8908 13.08Z" fill="#F5F5F5"/>
<path d="M5 21.328C5 17.7639 5.76389 17 9.328 17H10.672C14.2361 17 15 17.7639 15 21.328V22.672C15 26.2361 14.2361 27 10.672 27H9.328C5.76389 27 5 26.2361 5 22.672V21.328Z" fill="#16161D"/>
<path d="M10.3355 25V20.488L10.5355 20.536L8.69553 22.784L8.66353 22.688H12.1435V23.48H8.12753L7.75953 22.76L10.5035 19.4H11.1675V25H10.3355Z" fill="#F5F5F5"/>
<path d="M17 21.328C17 17.7639 17.7639 17 21.328 17H22.672C26.2361 17 27 17.7639 27 21.328V22.672C27 26.2361 26.2361 27 22.672 27H21.328C17.7639 27 17 26.2361 17 22.672V21.328Z" fill="#16161D"/>
<path d="M21.7826 25.056C21.4146 25.056 21.0812 24.9733 20.7826 24.808C20.4839 24.6373 20.2359 24.3947 20.0386 24.08L20.5186 23.544C20.7692 23.8213 20.9879 24.0107 21.1746 24.112C21.3612 24.2133 21.5639 24.264 21.7826 24.264C22.0012 24.264 22.1986 24.216 22.3746 24.12C22.5506 24.024 22.6892 23.8933 22.7906 23.728C22.8972 23.5627 22.9506 23.3787 22.9506 23.176C22.9506 22.9627 22.8999 22.7733 22.7986 22.608C22.7026 22.4373 22.5719 22.304 22.4066 22.208C22.2412 22.1067 22.0546 22.056 21.8466 22.056C21.7452 22.056 21.6492 22.064 21.5586 22.08C21.4679 22.0907 21.3586 22.12 21.2306 22.168C21.1026 22.216 20.9346 22.2907 20.7266 22.392L20.2706 21.776L20.5986 19.4H23.6226V20.2H21.1426L21.3106 20.048L21.0466 21.824L20.8466 21.592C20.8999 21.5387 20.9906 21.488 21.1186 21.44C21.2466 21.3867 21.3879 21.344 21.5426 21.312C21.7026 21.2747 21.8546 21.256 21.9986 21.256C22.3399 21.256 22.6439 21.336 22.9106 21.496C23.1826 21.6507 23.3959 21.8667 23.5506 22.144C23.7106 22.4213 23.7906 22.7387 23.7906 23.096C23.7906 23.464 23.7026 23.7973 23.5266 24.096C23.3506 24.3893 23.1106 24.624 22.8066 24.8C22.5026 24.9707 22.1612 25.056 21.7826 25.056Z" fill="#F5F5F5"/>
</g>
<defs>
<clipPath id="clip0_2_4">
<rect width="32" height="32" fill="white"/>
</clipPath>
</defs>
</svg>
